<svg xmlns="http://www.w3.org/2000/svg" xmlns:xlink="http://www.w3.org/1999/xlink" width="640" height="640" preserveAspectRatio="xMidYMid meet" version="1.1" viewBox="0 0 640 640"><defs><path id="c1869Eaf7T" d="M344.62 0L344.62 640L295.38 640L295.38 0L344.62 0Z"/><path id="b83grbfB4K" d="M640 295.38L640 344.62L0 344.62L0 295.38L640 295.38Z"/><path id="e1iuZEEA3R" d="M443.08 98.46L443.08 541.54L196.92 541.54L196.92 98.46L443.08 98.46Z"/><path id="aDQJB3yqJ" d="M541.54 196.92L541.54 443.08L98.46 443.08L98.46 196.92L541.54 196.92Z"/><path id="aThLoqizf" d="M492.31 147.69L492.31 492.31L147.69 492.31L147.69 147.69L492.31 147.69Z"/><path id="aEI1pAJT2" d="M295.38 196.92L295.38 295.38L196.92 295.38L196.92 196.92L295.38 196.92Z"/><path id="b1GTbdvDx" d="M196.92 147.69L196.92 196.92L147.69 196.92L147.69 147.69L196.92 147.69Z"/><path id="a1A5CYXdqF" d="M246.15 196.92L246.15 246.15L196.92 246.15L196.92 196.92L246.15 196.92Z"/><path id="a2lj2bxUYo" d="M295.38 246.15L295.38 295.38L246.15 295.38L246.15 246.15L295.38 246.15Z"/><path id="a1wAADBIwa" d="M344.62 295.39L344.62 344.62L295.39 344.62L295.39 295.39L344.62 295.39Z"/><path id="dTr4Db40B" d="M393.85 344.62L393.85 393.85L344.62 393.85L344.62 344.62L393.85 344.62Z"/><path id="bGH8Y8R79" d="M492.31 443.08L492.31 492.31L443.08 492.31L443.08 443.08L492.31 443.08Z"/><path id="a6iOb3KIA" d="M443.08 393.85L443.08 443.08L393.85 443.08L393.85 393.85L443.08 393.85Z"/><path id="n9gBrGyWs" d="M590.77 541.54L590.77 590.77L541.54 590.77L541.54 541.54L590.77 541.54Z"/><path id="c1ovVllSjG" d="M541.54 492.31L541.54 541.54L492.31 541.54L492.31 492.31L541.54 492.31Z"/><path id="ba8UXeUUtf" d="M590.77 49.23L590.77 98.46L541.54 98.46L541.54 49.23L590.77 49.23Z"/><path id="c5o2i0kl4y" d="M492.31 147.69L492.31 196.92L443.08 196.92L443.08 147.69L492.31 147.69Z"/><path id="aS3QSKzKd" d="M443.08 196.92L443.08 246.15L393.85 246.15L393.85 196.92L443.08 196.92Z"/><path id="cM76cuyLQ" d="M393.85 246.15L393.85 295.38L344.62 295.38L344.62 246.15L393.85 246.15Z"/><path id="c2Dm1hvQ7" d="M295.38 344.62L295.38 393.85L246.15 393.85L246.15 344.62L295.38 344.62Z"/><path id="e1aR4EjOGS" d="M246.15 393.85L246.15 443.08L196.92 443.08L196.92 393.85L246.15 393.85Z"/><path id="co90jjoS9" d="M196.92 443.08L196.92 492.31L147.69 492.31L147.69 443.08L196.92 443.08Z"/><path id="d1XLw8j9bH" d="M98.46 541.54L98.46 590.77L49.23 590.77L49.23 541.54L98.46 541.54Z"/><path id="a4Lrv34vg" d="M147.69 492.31L147.69 541.54L98.46 541.54L98.46 492.31L147.69 492.31Z"/><path id="a4jmD5Ed9F" d="M541.54 98.46L541.54 147.69L492.31 147.69L492.31 98.46L541.54 98.46Z"/><path id="c1xKO8ZwLA" d="M344.61 147.69L344.61 246.15L246.15 246.15L246.15 147.69L344.61 147.69Z"/><path id="b4SnLEU3dx" d="M246.15 246.15L246.15 344.61L147.69 344.61L147.69 246.15L246.15 246.15Z"/><path id="c1aRZzKirQ" d="M147.69 98.46L147.69 147.69L98.46 147.69L98.46 98.46L147.69 98.46Z"/><path id="a2ksgf7mW" d="M98.46 49.23L98.46 98.46L49.23 98.46L49.23 49.23L98.46 49.23Z"/><path id="b5cVKYcv02" d="M147.69 98.46L147.69 147.69L49.23 147.69L49.23 98.46L147.69 98.46Z"/><path id="b7kCLtD3W" d="M147.69 147.69L147.69 196.92L98.46 196.92L98.46 147.69L147.69 147.69Z"/><path id="h6YKjVfRR" d="M196.92 147.69L196.92 196.92L98.46 196.92L98.46 147.69L196.92 147.69Z"/><path id="a16DIaoZRa" d="M246.15 196.92L246.15 246.15L147.69 246.15L147.69 196.92L246.15 196.92Z"/><path id="ct15XHWaW" d="M295.38 246.15L295.38 295.38L196.92 295.38L196.92 246.15L295.38 246.15Z"/><path id="aESiSFxWh" d="M344.61 295.39L344.61 344.62L246.15 344.62L246.15 295.39L344.61 295.39Z"/><path id="a56zA7glD" d="M393.85 344.62L393.85 393.85L295.39 393.85L295.39 344.62L393.85 344.62Z"/><path id="c5jMS5i2nN" d="M443.08 393.85L443.08 443.08L344.62 443.08L344.62 393.85L443.08 393.85Z"/><path id="aWEB7U09d" d="M492.31 443.08L492.31 492.31L393.85 492.31L393.85 443.08L492.31 443.08Z"/><path id="a1B4By7Ioj" d="M541.54 492.31L541.54 541.54L443.08 541.54L443.08 492.31L541.54 492.31Z"/><path id="ff31HsBRQ" d="M590.77 541.54L590.77 590.77L492.31 590.77L492.31 541.54L590.77 541.54Z"/><path id="icMiICAJr" d="M590.77 98.46L590.77 147.69L492.31 147.69L492.31 98.46L590.77 98.46Z"/><path id="aknnwXTZh" d="M541.54 147.69L541.54 196.92L443.08 196.92L443.08 147.69L541.54 147.69Z"/><path id="b8KoEXWV0C" d="M492.31 196.92L492.31 246.15L393.85 246.15L393.85 196.92L492.31 196.92Z"/><path id="d4hkSEIJP0" d="M443.08 246.15L443.08 295.38L344.62 295.38L344.62 246.15L443.08 246.15Z"/><path id="c1fZzOPqqS" d="M393.84 295.39L393.84 344.62L295.38 344.62L295.38 295.39L393.84 295.39Z"/><path id="g9BwuyaIN" d="M347.59 344.62L347.59 393.85L249.13 393.85L249.13 344.62L347.59 344.62Z"/><path id="b1w3Bx8wZu" d="M295.38 393.85L295.38 443.08L196.92 443.08L196.92 393.85L295.38 393.85Z"/><path id="e1zyD4F3o" d="M246.15 443.08L246.15 492.31L147.69 492.31L147.69 443.08L246.15 443.08Z"/><path id="b19LI342rS" d="M196.92 492.31L196.92 541.54L98.46 541.54L98.46 492.31L196.92 492.31Z"/><path id="a1k3j0oA3C" d="M147.69 541.54L147.69 590.77L49.23 590.77L49.23 541.54L147.69 541.54Z"/><path id="bJKHkGHVW" d="M98.47 590.77L98.47 640L49.23 640L49.23 590.77L98.47 590.77Z"/><path id="i101G4KE4g" d="M98.46 49.23L98.46 98.46L0 98.46L0 49.23L98.46 49.23Z"/><path id="a7eEwC32" d="M640 49.23L640 98.46L541.54 98.46L541.54 49.23L640 49.23Z"/><path id="cdVgQ44Zg" d="M98.46 590.77L98.46 640L0 640L0 590.77L98.46 590.77Z"/><path id="d2wKwIAu" d="M640 590.77L640 640L541.54 640L541.54 590.77L640 590.77Z"/><path id="beX6WGMmI" d="M295.39 196.92L295.39 246.15L246.15 246.15L246.15 196.92L295.39 196.92Z"/></defs><g><g><g><use fill="#000" fill-opacity="1" opacity="1" xlink:href="#c1869Eaf7T"/><g><use fill-opacity="0" stroke="#000" stroke-opacity="0" stroke-width="1" opacity="1" xlink:href="#c1869Eaf7T"/></g></g><g><use fill="#000" fill-opacity="1" opacity="1" xlink:href="#b83grbfB4K"/><g><use fill-opacity="0" stroke="#000" stroke-opacity="0" stroke-width="1" opacity="1" xlink:href="#b83grbfB4K"/></g></g><g><use fill="#000" fill-opacity="1" opacity="1" xlink:href="#e1iuZEEA3R"/><g><use fill-opacity="0" stroke="#000" stroke-opacity="0" stroke-width="1" opacity="1" xlink:href="#e1iuZEEA3R"/></g></g><g><use fill="#000" fill-opacity="1" opacity="1" xlink:href="#aDQJB3yqJ"/><g><use fill-opacity="0" stroke="#000" stroke-opacity="0" stroke-width="1" opacity="1" xlink:href="#aDQJB3yqJ"/></g></g><g><use fill="#000" fill-opacity="1" opacity="1" xlink:href="#aThLoqizf"/><g><use fill-opacity="0" stroke="#000" stroke-opacity="0" stroke-width="1" opacity="1" xlink:href="#aThLoqizf"/></g></g><g><use fill="#fff" fill-opacity="1" opacity="1" xlink:href="#aEI1pAJT2"/><g><use fill-opacity="0" stroke="#000" stroke-opacity="0" stroke-width="1" opacity="1" xlink:href="#aEI1pAJT2"/></g></g><g><use fill="red" fill-opacity="1" opacity="1" xlink:href="#b1GTbdvDx"/><g><use fill-opacity="0" stroke="#000" stroke-opacity="0" stroke-width="1" opacity="1" xlink:href="#b1GTbdvDx"/></g></g><g><use fill="red" fill-opacity="1" opacity="1" xlink:href="#a1A5CYXdqF"/><g><use fill-opacity="0" stroke="#000" stroke-opacity="0" stroke-width="1" opacity="1" xlink:href="#a1A5CYXdqF"/></g></g><g><use fill="red" fill-opacity="1" opacity="1" xlink:href="#a2lj2bxUYo"/><g><use fill-opacity="0" stroke="#000" stroke-opacity="0" stroke-width="1" opacity="1" xlink:href="#a2lj2bxUYo"/></g></g><g><use fill="red" fill-opacity="1" opacity="1" xlink:href="#a1wAADBIwa"/><g><use fill-opacity="0" stroke="#000" stroke-opacity="0" stroke-width="1" opacity="1" xlink:href="#a1wAADBIwa"/></g></g><g><use fill="red" fill-opacity="1" opacity="1" xlink:href="#dTr4Db40B"/><g><use fill-opacity="0" stroke="#000" stroke-opacity="0" stroke-width="1" opacity="1" xlink:href="#dTr4Db40B"/></g></g><g><use fill="red" fill-opacity="1" opacity="1" xlink:href="#bGH8Y8R79"/><g><use fill-opacity="0" stroke="#000" stroke-opacity="0" stroke-width="1" opacity="1" xlink:href="#bGH8Y8R79"/></g></g><g><use fill="red" fill-opacity="1" opacity="1" xlink:href="#a6iOb3KIA"/><g><use fill-opacity="0" stroke="#000" stroke-opacity="0" stroke-width="1" opacity="1" xlink:href="#a6iOb3KIA"/></g></g><g><use fill="red" fill-opacity="1" opacity="1" xlink:href="#n9gBrGyWs"/><g><use fill-opacity="0" stroke="#000" stroke-opacity="0" stroke-width="1" opacity="1" xlink:href="#n9gBrGyWs"/></g></g><g><use fill="red" fill-opacity="1" opacity="1" xlink:href="#c1ovVllSjG"/><g><use fill-opacity="0" stroke="#000" stroke-opacity="0" stroke-width="1" opacity="1" xlink:href="#c1ovVllSjG"/></g></g><g><use fill="red" fill-opacity="1" opacity="1" xlink:href="#ba8UXeUUtf"/><g><use fill-opacity="0" stroke="#000" stroke-opacity="0" stroke-width="1" opacity="1" xlink:href="#ba8UXeUUtf"/></g></g><g><use fill="red" fill-opacity="1" opacity="1" xlink:href="#c5o2i0kl4y"/><g><use fill-opacity="0" stroke="#000" stroke-opacity="0" stroke-width="1" opacity="1" xlink:href="#c5o2i0kl4y"/></g></g><g><use fill="red" fill-opacity="1" opacity="1" xlink:href="#aS3QSKzKd"/><g><use fill-opacity="0" stroke="#000" stroke-opacity="0" stroke-width="1" opacity="1" xlink:href="#aS3QSKzKd"/></g></g><g><use fill="red" fill-opacity="1" opacity="1" xlink:href="#cM76cuyLQ"/><g><use fill-opacity="0" stroke="#000" stroke-opacity="0" stroke-width="1" opacity="1" xlink:href="#cM76cuyLQ"/></g></g><g><use fill="red" fill-opacity="1" opacity="1" xlink:href="#c2Dm1hvQ7"/><g><use fill-opacity="0" stroke="#000" stroke-opacity="0" stroke-width="1" opacity="1" xlink:href="#c2Dm1hvQ7"/></g></g><g><use fill="red" fill-opacity="1" opacity="1" xlink:href="#e1aR4EjOGS"/><g><use fill-opacity="0" stroke="#000" stroke-opacity="0" stroke-width="1" opacity="1" xlink:href="#e1aR4EjOGS"/></g></g><g><use fill="red" fill-opacity="1" opacity="1" xlink:href="#co90jjoS9"/><g><use fill-opacity="0" stroke="#000" stroke-opacity="0" stroke-width="1" opacity="1" xlink:href="#co90jjoS9"/></g></g><g><use fill="red" fill-opacity="1" opacity="1" xlink:href="#d1XLw8j9bH"/><g><use fill-opacity="0" stroke="#000" stroke-opacity="0" stroke-width="1" opacity="1" xlink:href="#d1XLw8j9bH"/></g></g><g><use fill="red" fill-opacity="1" opacity="1" xlink:href="#a4Lrv34vg"/><g><use fill-opacity="0" stroke="#000" stroke-opacity="0" stroke-width="1" opacity="1" xlink:href="#a4Lrv34vg"/></g></g><g><use fill="red" fill-opacity="1" opacity="1" xlink:href="#a4jmD5Ed9F"/><g><use fill-opacity="0" stroke="#000" stroke-opacity="0" stroke-width="1" opacity="1" xlink:href="#a4jmD5Ed9F"/></g></g><g><use fill="#000" fill-opacity="1" opacity="1" xlink:href="#c1xKO8ZwLA"/><g><use fill-opacity="0" stroke="#000" stroke-opacity="0" stroke-width="1" opacity="1" xlink:href="#c1xKO8ZwLA"/></g></g><g><use fill="#000" fill-opacity="1" opacity="1" xlink:href="#b4SnLEU3dx"/><g><use fill-opacity="0" stroke="#000" stroke-opacity="0" stroke-width="1" opacity="1" xlink:href="#b4SnLEU3dx"/></g></g><g><use fill="red" fill-opacity="1" opacity="1" xlink:href="#c1aRZzKirQ"/><g><use fill-opacity="0" stroke="#000" stroke-opacity="0" stroke-width="1" opacity="1" xlink:href="#c1aRZzKirQ"/></g></g><g><use fill="red" fill-opacity="1" opacity="1" xlink:href="#a2ksgf7mW"/><g><use fill-opacity="0" stroke="#000" stroke-opacity="0" stroke-width="1" opacity="1" xlink:href="#a2ksgf7mW"/></g></g><g><use fill="red" fill-opacity="1" opacity="1" xlink:href="#b5cVKYcv02"/><g><use fill-opacity="0" stroke="#000" stroke-opacity="0" stroke-width="1" opacity="1" xlink:href="#b5cVKYcv02"/></g></g><g><use fill="red" fill-opacity="1" opacity="1" xlink:href="#b7kCLtD3W"/><g><use fill-opacity="0" stroke="#000" stroke-opacity="0" stroke-width="1" opacity="1" xlink:href="#b7kCLtD3W"/></g></g><g><use fill="red" fill-opacity="1" opacity="1" xlink:href="#h6YKjVfRR"/><g><use fill-opacity="0" stroke="#000" stroke-opacity="0" stroke-width="1" opacity="1" xlink:href="#h6YKjVfRR"/></g></g><g><use fill="red" fill-opacity="1" opacity="1" xlink:href="#a16DIaoZRa"/><g><use fill-opacity="0" stroke="#000" stroke-opacity="0" stroke-width="1" opacity="1" xlink:href="#a16DIaoZRa"/></g></g><g><use fill="red" fill-opacity="1" opacity="1" xlink:href="#ct15XHWaW"/><g><use fill-opacity="0" stroke="#000" stroke-opacity="0" stroke-width="1" opacity="1" xlink:href="#ct15XHWaW"/></g></g><g><use fill="red" fill-opacity="1" opacity="1" xlink:href="#aESiSFxWh"/><g><use fill-opacity="0" stroke="#000" stroke-opacity="0" stroke-width="1" opacity="1" xlink:href="#aESiSFxWh"/></g></g><g><use fill="red" fill-opacity="1" opacity="1" xlink:href="#a56zA7glD"/><g><use fill-opacity="0" stroke="#000" stroke-opacity="0" stroke-width="1" opacity="1" xlink:href="#a56zA7glD"/></g></g><g><use fill="red" fill-opacity="1" opacity="1" xlink:href="#c5jMS5i2nN"/><g><use fill-opacity="0" stroke="#000" stroke-opacity="0" stroke-width="1" opacity="1" xlink:href="#c5jMS5i2nN"/></g></g><g><use fill="red" fill-opacity="1" opacity="1" xlink:href="#aWEB7U09d"/><g><use fill-opacity="0" stroke="#000" stroke-opacity="0" stroke-width="1" opacity="1" xlink:href="#aWEB7U09d"/></g></g><g><use fill="red" fill-opacity="1" opacity="1" xlink:href="#a1B4By7Ioj"/><g><use fill-opacity="0" stroke="#000" stroke-opacity="0" stroke-width="1" opacity="1" xlink:href="#a1B4By7Ioj"/></g></g><g><use fill="red" fill-opacity="1" opacity="1" xlink:href="#ff31HsBRQ"/><g><use fill-opacity="0" stroke="#000" stroke-opacity="0" stroke-width="1" opacity="1" xlink:href="#ff31HsBRQ"/></g></g><g><use fill="red" fill-opacity="1" opacity="1" xlink:href="#icMiICAJr"/><g><use fill-opacity="0" stroke="#000" stroke-opacity="0" stroke-width="1" opacity="1" xlink:href="#icMiICAJr"/></g></g><g><use fill="red" fill-opacity="1" opacity="1" xlink:href="#aknnwXTZh"/><g><use fill-opacity="0" stroke="#000" stroke-opacity="0" stroke-width="1" opacity="1" xlink:href="#aknnwXTZh"/></g></g><g><use fill="red" fill-opacity="1" opacity="1" xlink:href="#b8KoEXWV0C"/><g><use fill-opacity="0" stroke="#000" stroke-opacity="0" stroke-width="1" opacity="1" xlink:href="#b8KoEXWV0C"/></g></g><g><use fill="red" fill-opacity="1" opacity="1" xlink:href="#d4hkSEIJP0"/><g><use fill-opacity="0" stroke="#000" stroke-opacity="0" stroke-width="1" opacity="1" xlink:href="#d4hkSEIJP0"/></g></g><g><use fill="red" fill-opacity="1" opacity="1" xlink:href="#c1fZzOPqqS"/><g><use fill-opacity="0" stroke="#000" stroke-opacity="0" stroke-width="1" opacity="1" xlink:href="#c1fZzOPqqS"/></g></g><g><use fill="red" fill-opacity="1" opacity="1" xlink:href="#g9BwuyaIN"/><g><use fill-opacity="0" stroke="#000" stroke-opacity="0" stroke-width="1" opacity="1" xlink:href="#g9BwuyaIN"/></g></g><g><use fill="red" fill-opacity="1" opacity="1" xlink:href="#b1w3Bx8wZu"/><g><use fill-opacity="0" stroke="#000" stroke-opacity="0" stroke-width="1" opacity="1" xlink:href="#b1w3Bx8wZu"/></g></g><g><use fill="red" fill-opacity="1" opacity="1" xlink:href="#e1zyD4F3o"/><g><use fill-opacity="0" stroke="#000" stroke-opacity="0" stroke-width="1" opacity="1" xlink:href="#e1zyD4F3o"/></g></g><g><use fill="red" fill-opacity="1" opacity="1" xlink:href="#b19LI342rS"/><g><use fill-opacity="0" stroke="#000" stroke-opacity="0" stroke-width="1" opacity="1" xlink:href="#b19LI342rS"/></g></g><g><use fill="red" fill-opacity="1" opacity="1" xlink:href="#a1k3j0oA3C"/><g><use fill-opacity="0" stroke="#000" stroke-opacity="0" stroke-width="1" opacity="1" xlink:href="#a1k3j0oA3C"/></g></g><g><use fill="red" fill-opacity="1" opacity="1" xlink:href="#bJKHkGHVW"/><g><use fill-opacity="0" stroke="#000" stroke-opacity="0" stroke-width="1" opacity="1" xlink:href="#bJKHkGHVW"/></g></g><g><use fill="red" fill-opacity="1" opacity="1" xlink:href="#i101G4KE4g"/><g><use fill-opacity="0" stroke="#000" stroke-opacity="0" stroke-width="1" opacity="1" xlink:href="#i101G4KE4g"/></g></g><g><use fill="red" fill-opacity="1" opacity="1" xlink:href="#a7eEwC32"/><g><use fill-opacity="0" stroke="#000" stroke-opacity="0" stroke-width="1" opacity="1" xlink:href="#a7eEwC32"/></g></g><g><use fill="red" fill-opacity="1" opacity="1" xlink:href="#cdVgQ44Zg"/><g><use fill-opacity="0" stroke="#000" stroke-opacity="0" stroke-width="1" opacity="1" xlink:href="#cdVgQ44Zg"/></g></g><g><use fill="red" fill-opacity="1" opacity="1" xlink:href="#d2wKwIAu"/><g><use fill-opacity="0" stroke="#000" stroke-opacity="0" stroke-width="1" opacity="1" xlink:href="#d2wKwIAu"/></g></g><g><use fill="#fff" fill-opacity="1" opacity="1" xlink:href="#beX6WGMmI"/><g><use fill-opacity="0" stroke="#000" stroke-opacity="0" stroke-width="1" opacity="1" xlink:href="#beX6WGMmI"/></g></g></g></g></svg>