<svg xmlns="http://www.w3.org/2000/svg" xmlns:xlink="http://www.w3.org/1999/xlink" width="640" height="640" preserveAspectRatio="xMidYMid meet" version="1.1" viewBox="0 0 640 640"><defs><path id="m4kicUPCkd" d="M256 0L384 0L384 320L256 320L256 0Z"/><path id="dzn2mX294" d="M128 64L320 64L320 264L128 264L128 64Z"/><path id="a1YEvtKWDO" d="M64 128L192 128L192 192L64 192L64 128Z"/><path id="ct9UvBtBd" d="M320 320L384 320L384 512L320 512L320 320Z"/><path id="bDTGk7uZI" d="M192 448L448 448L448 576L192 576L192 448Z"/><path id="h4m736mGD4" d="M64 512L576 512L576 640L64 640L64 512Z"/></defs><g><g><g><use fill="#fe0000" fill-opacity="1" opacity="1" xlink:href="#m4kicUPCkd"/></g><g><use fill="#fe0000" fill-opacity="1" opacity="1" xlink:href="#dzn2mX294"/></g><g><use fill="#fe0000" fill-opacity="1" opacity="1" xlink:href="#a1YEvtKWDO"/></g><g><use fill="#000" fill-opacity="1" opacity="1" xlink:href="#ct9UvBtBd"/></g><g><use fill="#000" fill-opacity="1" opacity="1" xlink:href="#bDTGk7uZI"/></g><g><use fill="#000" fill-opacity="1" opacity="1" xlink:href="#h4m736mGD4"/></g></g></g></svg>