<svg xmlns="http://www.w3.org/2000/svg" xmlns:xlink="http://www.w3.org/1999/xlink" width="640" height="640" preserveAspectRatio="xMidYMid meet" version="1.1" viewBox="0 0 640 640"><defs><path id="b3o7AOuohM" d="M295.38 0L344.62 0L344.62 640L295.38 640L295.38 0Z"/><path id="a1UqaKuBoB" d="M0 295.38L640 295.38L640 344.62L0 344.62L0 295.38Z"/><path id="bBqGUcJkp" d="M196.92 98.46L443.08 98.46L443.08 541.54L196.92 541.54L196.92 98.46Z"/><path id="a9hXAi56eB" d="M98.46 196.92L541.54 196.92L541.54 443.08L98.46 443.08L98.46 196.92Z"/><path id="cmxaI7HP" d="M147.69 147.69L492.31 147.69L492.31 492.31L147.69 492.31L147.69 147.69Z"/><path id="a2ugk8d0e2" d="M196.92 196.92L295.38 196.92L295.38 295.38L196.92 295.38L196.92 196.92Z"/><path id="c23iPtnJwW" d="M98.46 98.46L147.69 98.46L147.69 147.69L98.46 147.69L98.46 98.46Z"/><path id="arw5hYKGs" d="M492.31 98.46L541.54 98.46L541.54 147.69L492.31 147.69L492.31 98.46Z"/><path id="a999ct7wZ" d="M98.46 492.31L147.69 492.31L147.69 541.54L98.46 541.54L98.46 492.31Z"/><path id="baAM63FMh0" d="M492.31 492.31L541.54 492.31L541.54 541.54L492.31 541.54L492.31 492.31Z"/></defs><g><g><g><use fill="#000" fill-opacity="1" opacity="1" xlink:href="#b3o7AOuohM"/></g><g><use fill="#000" fill-opacity="1" opacity="1" xlink:href="#a1UqaKuBoB"/></g><g><use fill="#000" fill-opacity="1" opacity="1" xlink:href="#bBqGUcJkp"/></g><g><use fill="#000" fill-opacity="1" opacity="1" xlink:href="#a9hXAi56eB"/></g><g><use fill="#000" fill-opacity="1" opacity="1" xlink:href="#cmxaI7HP"/></g><g><use fill="#fff" fill-opacity="1" opacity="1" xlink:href="#a2ugk8d0e2"/></g><g><use fill="#000" fill-opacity="1" opacity="1" xlink:href="#c23iPtnJwW"/></g><g><use fill="#000" fill-opacity="1" opacity="1" xlink:href="#arw5hYKGs"/></g><g><use fill="#000" fill-opacity="1" opacity="1" xlink:href="#a999ct7wZ"/></g><g><use fill="#000" fill-opacity="1" opacity="1" xlink:href="#baAM63FMh0"/></g></g></g></svg>